HIERARCHY
ROOT mixamorig:Hips
{
	OFFSET -0.000008 104.274872 1.554316
	CHANNELS 6 Xposition Yposition Zposition Xrotation Yrotation Zrotation
	JOINT mixamorig:Spine
	{
		OFFSET -0.000005 10.181595 0.131519
		CHANNELS 6 Xposition Yposition Zposition Xrotation Yrotation Zrotation
		JOINT mixamorig:Spine1
		{
			OFFSET -0.000000 9.893959 -1.470707
			CHANNELS 6 Xposition Yposition Zposition Xrotation Yrotation Zrotation
			JOINT mixamorig:Spine2
			{
				OFFSET -0.000000 9.220757 -1.370641
				CHANNELS 6 Xposition Yposition Zposition Xrotation Yrotation Zrotation
				JOINT mixamorig:Neck
				{
					OFFSET 0.000001 16.740417 -2.049036
					CHANNELS 6 Xposition Yposition Zposition Xrotation Yrotation Zrotation
					JOINT mixamorig:Head
					{
						OFFSET 0.000000 9.617874 1.685006
						CHANNELS 6 Xposition Yposition Zposition Xrotation Yrotation Zrotation
						JOINT mixamorig:HeadTop_End
						{
							OFFSET 0.000002 22.037354 7.501101
							CHANNELS 6 Xposition Yposition Zposition Xrotation Yrotation Zrotation
							End Site
							{
								OFFSET 0.000168 2310.654297 -282.823242
							}
						}
					}
				}
				JOINT mixamorig:RightShoulder
				{
					OFFSET -4.569970 11.014908 -2.160885
					CHANNELS 6 Xposition Yposition Zposition Xrotation Yrotation Zrotation
					JOINT mixamorig:RightArm
					{
						OFFSET -10.592851 -0.524811 -2.232101
						CHANNELS 6 Xposition Yposition Zposition Xrotation Yrotation Zrotation
						JOINT mixamorig:RightForeArm
						{
							OFFSET -27.841511 0.000031 -0.000004
							CHANNELS 6 Xposition Yposition Zposition Xrotation Yrotation Zrotation
							JOINT mixamorig:RightHand
							{
								OFFSET -28.328831 -0.000015 0.000015
								CHANNELS 6 Xposition Yposition Zposition Xrotation Yrotation Zrotation
								JOINT mixamorig:RightHandThumb1
								{
									OFFSET -2.464806 -1.573990 2.681852
									CHANNELS 6 Xposition Yposition Zposition Xrotation Yrotation Zrotation
									JOINT mixamorig:RightHandThumb2
									{
										OFFSET -3.215179 -1.872803 1.924282
										CHANNELS 6 Xposition Yposition Zposition Xrotation Yrotation Zrotation
										JOINT mixamorig:RightHandThumb3
										{
											OFFSET -2.654831 -1.527969 1.512609
											CHANNELS 6 Xposition Yposition Zposition Xrotation Yrotation Zrotation
											JOINT mixamorig:RightHandThumb4
											{
												OFFSET -2.018814 -1.152008 1.108052
												CHANNELS 6 Xposition Yposition Zposition Xrotation Yrotation Zrotation
												End Site
												{
													OFFSET -188.809540 -114.533607 132.431396
												}
											}
										}
									}
								}
								JOINT mixamorig:RightHandIndex1
								{
									OFFSET -9.108284 -0.517868 2.259835
									CHANNELS 6 Xposition Yposition Zposition Xrotation Yrotation Zrotation
									JOINT mixamorig:RightHandIndex2
									{
										OFFSET -3.699989 0.000000 0.001215
										CHANNELS 6 Xposition Yposition Zposition Xrotation Yrotation Zrotation
										JOINT mixamorig:RightHandIndex3
										{
											OFFSET -2.850006 0.000031 -0.000522
											CHANNELS 6 Xposition Yposition Zposition Xrotation Yrotation Zrotation
											JOINT mixamorig:RightHandIndex4
											{
												OFFSET -2.772186 -0.000015 -0.000020
												CHANNELS 6 Xposition Yposition Zposition Xrotation Yrotation Zrotation
												End Site
												{
													OFFSET -277.218445 0.000000 -0.050231
												}
											}
										}
									}
								}
								JOINT mixamorig:RightHandMiddle1
								{
									OFFSET -9.532516 -0.000031 -0.000023
									CHANNELS 6 Xposition Yposition Zposition Xrotation Yrotation Zrotation
									JOINT mixamorig:RightHandMiddle2
									{
										OFFSET -3.700005 -0.000015 0.003713
										CHANNELS 6 Xposition Yposition Zposition Xrotation Yrotation Zrotation
										JOINT mixamorig:RightHandMiddle3
										{
											OFFSET -2.949974 0.000015 -0.002054
											CHANNELS 6 Xposition Yposition Zposition Xrotation Yrotation Zrotation
											JOINT mixamorig:RightHandMiddle4
											{
												OFFSET -2.946640 0.000000 -0.000156
												CHANNELS 6 Xposition Yposition Zposition Xrotation Yrotation Zrotation
												End Site
												{
													OFFSET -294.664337 0.000000 -0.113670
												}
											}
										}
									}
								}
								JOINT mixamorig:RightHandRing1
								{
									OFFSET -9.103600 -0.043076 -1.865134
									CHANNELS 6 Xposition Yposition Zposition Xrotation Yrotation Zrotation
									JOINT mixamorig:RightHandRing2
									{
										OFFSET -3.379288 0.000000 -0.001055
										CHANNELS 6 Xposition Yposition Zposition Xrotation Yrotation Zrotation
										JOINT mixamorig:RightHandRing3
										{
											OFFSET -2.889687 -0.000015 0.000379
											CHANNELS 6 Xposition Yposition Zposition Xrotation Yrotation Zrotation
											JOINT mixamorig:RightHandRing4
											{
												OFFSET -2.638809 -0.000015 0.000941
												CHANNELS 6 Xposition Yposition Zposition Xrotation Yrotation Zrotation
												End Site
												{
													OFFSET -263.880371 0.000000 0.516020
												}
											}
										}
									}
								}
								JOINT mixamorig:RightHandPinky1
								{
									OFFSET -8.076683 -0.486710 -3.806280
									CHANNELS 6 Xposition Yposition Zposition Xrotation Yrotation Zrotation
									JOINT mixamorig:RightHandPinky2
									{
										OFFSET -3.600014 -0.000015 -0.003747
										CHANNELS 6 Xposition Yposition Zposition Xrotation Yrotation Zrotation
										JOINT mixamorig:RightHandPinky3
										{
											OFFSET -2.099983 0.000000 -0.005739
											CHANNELS 6 Xposition Yposition Zposition Xrotation Yrotation Zrotation
											JOINT mixamorig:RightHandPinky4
											{
												OFFSET -2.115768 -0.000031 -0.003680
												CHANNELS 6 Xposition Yposition Zposition Xrotation Yrotation Zrotation
												End Site
												{
													OFFSET -211.577087 0.000000 -0.350686
												}
											}
										}
									}
								}
							}
						}
					}
				}
				JOINT mixamorig:LeftShoulder
				{
					OFFSET 4.570447 11.014725 -2.160855
					CHANNELS 6 Xposition Yposition Zposition Xrotation Yrotation Zrotation
					JOINT mixamorig:LeftArm
					{
						OFFSET 10.592371 -0.524597 -2.232119
						CHANNELS 6 Xposition Yposition Zposition Xrotation Yrotation Zrotation
						JOINT mixamorig:LeftForeArm
						{
							OFFSET 27.841532 -0.000031 0.000026
							CHANNELS 6 Xposition Yposition Zposition Xrotation Yrotation Zrotation
							JOINT mixamorig:LeftHand
							{
								OFFSET 28.328846 -0.000061 0.000022
								CHANNELS 6 Xposition Yposition Zposition Xrotation Yrotation Zrotation
								JOINT mixamorig:LeftHandThumb1
								{
									OFFSET 2.466141 -1.576172 2.681732
									CHANNELS 6 Xposition Yposition Zposition Xrotation Yrotation Zrotation
									JOINT mixamorig:LeftHandThumb2
									{
										OFFSET 3.217812 -1.872070 1.916482
										CHANNELS 6 Xposition Yposition Zposition Xrotation Yrotation Zrotation
										JOINT mixamorig:LeftHandThumb3
										{
											OFFSET 2.656029 -1.528778 1.514513
											CHANNELS 6 Xposition Yposition Zposition Xrotation Yrotation Zrotation
											JOINT mixamorig:LeftHandThumb4
											{
												OFFSET 2.020889 -1.154053 1.115139
												CHANNELS 6 Xposition Yposition Zposition Xrotation Yrotation Zrotation
												End Site
												{
													OFFSET 190.885437 -115.081749 130.048782
												}
											}
										}
									}
								}
								JOINT mixamorig:LeftHandIndex1
								{
									OFFSET 9.109314 -0.518021 2.259871
									CHANNELS 6 Xposition Yposition Zposition Xrotation Yrotation Zrotation
									JOINT mixamorig:LeftHandIndex2
									{
										OFFSET 3.699989 0.000000 -0.000322
										CHANNELS 6 Xposition Yposition Zposition Xrotation Yrotation Zrotation
										JOINT mixamorig:LeftHandIndex3
										{
											OFFSET 2.850006 0.000000 0.000352
											CHANNELS 6 Xposition Yposition Zposition Xrotation Yrotation Zrotation
											JOINT mixamorig:LeftHandIndex4
											{
												OFFSET 2.774864 -0.000031 -0.000027
												CHANNELS 6 Xposition Yposition Zposition Xrotation Yrotation Zrotation
												End Site
												{
													OFFSET 277.486267 0.000000 -0.009857
												}
											}
										}
									}
								}
								JOINT mixamorig:LeftHandMiddle1
								{
									OFFSET 9.533394 0.000061 0.000044
									CHANNELS 6 Xposition Yposition Zposition Xrotation Yrotation Zrotation
									JOINT mixamorig:LeftHandMiddle2
									{
										OFFSET 3.699989 -0.000015 -0.000231
										CHANNELS 6 Xposition Yposition Zposition Xrotation Yrotation Zrotation
										JOINT mixamorig:LeftHandMiddle3
										{
											OFFSET 2.949997 -0.000015 -0.000059
											CHANNELS 6 Xposition Yposition Zposition Xrotation Yrotation Zrotation
											JOINT mixamorig:LeftHandMiddle4
											{
												OFFSET 2.952896 0.000031 0.000063
												CHANNELS 6 Xposition Yposition Zposition Xrotation Yrotation Zrotation
												End Site
												{
													OFFSET 295.289337 0.000000 0.022810
												}
											}
										}
									}
								}
								JOINT mixamorig:LeftHandRing1
								{
									OFFSET 9.104523 -0.042999 -1.865074
									CHANNELS 6 Xposition Yposition Zposition Xrotation Yrotation Zrotation
									JOINT mixamorig:LeftHandRing2
									{
										OFFSET 3.150009 -0.000031 0.000043
										CHANNELS 6 Xposition Yposition Zposition Xrotation Yrotation Zrotation
										JOINT mixamorig:LeftHandRing3
										{
											OFFSET 2.949982 -0.000015 0.000040
											CHANNELS 6 Xposition Yposition Zposition Xrotation Yrotation Zrotation
											JOINT mixamorig:LeftHandRing4
											{
												OFFSET 2.644348 0.000000 0.000057
												CHANNELS 6 Xposition Yposition Zposition Xrotation Yrotation Zrotation
												End Site
												{
													OFFSET 264.434631 0.000000 0.012105
												}
											}
										}
									}
								}
								JOINT mixamorig:LeftHandPinky1
								{
									OFFSET 8.077789 -0.486847 -3.806259
									CHANNELS 6 Xposition Yposition Zposition Xrotation Yrotation Zrotation
									JOINT mixamorig:LeftHandPinky2
									{
										OFFSET 3.599953 0.000031 0.014727
										CHANNELS 6 Xposition Yposition Zposition Xrotation Yrotation Zrotation
										JOINT mixamorig:LeftHandPinky3
										{
											OFFSET 2.100021 0.000015 0.007705
											CHANNELS 6 Xposition Yposition Zposition Xrotation Yrotation Zrotation
											JOINT mixamorig:LeftHandPinky4
											{
												OFFSET 2.125504 0.000031 0.007517
												CHANNELS 6 Xposition Yposition Zposition Xrotation Yrotation Zrotation
												End Site
												{
													OFFSET 212.550781 0.000000 0.625752
												}
											}
										}
									}
								}
							}
						}
					}
				}
			}
		}
	}
	JOINT mixamorig:RightUpLeg
	{
		OFFSET -8.207787 -6.751648 -1.599560
		CHANNELS 6 Xposition Yposition Zposition Xrotation Yrotation Zrotation
		JOINT mixamorig:RightLeg
		{
			OFFSET -0.000002 -44.370117 0.345942
			CHANNELS 6 Xposition Yposition Zposition Xrotation Yrotation Zrotation
			JOINT mixamorig:RightFoot
			{
				OFFSET 0.000003 -44.423679 -3.043532
				CHANNELS 6 Xposition Yposition Zposition Xrotation Yrotation Zrotation
				JOINT mixamorig:RightToeBase
				{
					OFFSET -0.000002 -8.728671 10.710558
					CHANNELS 6 Xposition Yposition Zposition Xrotation Yrotation Zrotation
					JOINT mixamorig:RightToe_End
					{
						OFFSET -0.000001 -0.000679 9.278119
						CHANNELS 6 Xposition Yposition Zposition Xrotation Yrotation Zrotation
						End Site
						{
							OFFSET 0.000000 -0.067690 927.812134
						}
					}
				}
			}
		}
	}
	JOINT mixamorig:LeftUpLeg
	{
		OFFSET 8.207793 -6.751686 -1.599556
		CHANNELS 6 Xposition Yposition Zposition Xrotation Yrotation Zrotation
		JOINT mixamorig:LeftLeg
		{
			OFFSET -0.000004 -44.370014 0.346954
			CHANNELS 6 Xposition Yposition Zposition Xrotation Yrotation Zrotation
			JOINT mixamorig:LeftFoot
			{
				OFFSET -0.000001 -44.423672 -3.044401
				CHANNELS 6 Xposition Yposition Zposition Xrotation Yrotation Zrotation
				JOINT mixamorig:LeftToeBase
				{
					OFFSET -0.000002 -8.728669 10.710558
					CHANNELS 6 Xposition Yposition Zposition Xrotation Yrotation Zrotation
					JOINT mixamorig:LeftToe_End
					{
						OFFSET -0.000003 -0.000679 9.278133
						CHANNELS 6 Xposition Yposition Zposition Xrotation Yrotation Zrotation
						End Site
						{
							OFFSET 0.000000 -0.068021 927.813477
						}
					}
				}
			}
		}
	}
}
MOTION
Frames: 3
Frame Time: 0.033333
0.000006 104.270477 1.554256 0.000010 0.000003 -0.000113 -0.000005 10.181587 0.131522 0.000001 -0.000003 0.000084 -0.000000 9.893967 -1.470711 0.000001 0.000000 -0.000000 -0.000000 9.220802 -1.370642 0.000000 -0.000000 -0.000000 0.000001 16.740433 -2.049030 0.000000 -0.000000 -0.000000 0.000000 9.617859 1.685014 0.000000 0.000000 0.000000 0.000002 22.037384 7.501101 0.000000 -0.000000 0.000000 -4.569968 11.014880 -2.160881 0.000008 0.000001 -0.000038 -10.592876 -0.524753 -2.231922 73.057090 27.016794 -20.180229 -27.841528 -0.000001 0.000555 -55.200817 107.815588 71.291418 -28.328827 0.000019 0.000027 -0.000319 -0.000048 0.000009 -2.464459 -1.573722 2.682330 -50.206142 -172.877347 -16.587051 -3.215292 -1.872627 1.924667 156.313018 30.307687 -4.817901 -2.654958 -1.527910 1.513088 146.804671 26.448185 -42.531970 -2.018834 -1.152013 1.108051 -0.000001 -0.000003 0.000002 -9.108397 -0.517566 2.260125 97.520901 18.015985 -20.554138 -3.700075 0.000307 0.001511 93.306060 16.320640 -17.250659 -2.850085 0.000362 -0.000267 92.054776 13.104675 -13.577905 -2.772188 -0.000015 -0.000021 -0.000003 0.000000 0.000001 -9.532587 0.000271 0.000231 91.140077 16.424529 -16.895644 -3.700090 0.000327 0.003959 90.028006 14.292897 -14.202817 -2.950067 0.000326 -0.001821 90.681355 12.898367 -13.044059 -2.946626 0.000003 -0.000156 0.000001 0.000001 0.000000 -9.103705 -0.042758 -1.864878 88.896169 18.847767 -18.449871 -3.379352 0.000305 -0.000815 90.377254 12.013985 -12.110722 -2.889753 0.000349 0.000655 94.740338 7.958770 -8.693682 -2.638802 -0.000014 0.000939 0.000000 -0.000001 0.000000 -8.076754 -0.486388 -3.806061 78.646630 17.602026 -14.330878 -3.600046 0.000269 -0.003551 81.466979 9.219465 -7.633958 -2.100029 0.000291 -0.005522 84.844876 5.846188 -5.142046 -2.115793 -0.000053 -0.003683 0.000001 -0.000001 -0.000002 4.570446 11.014691 -2.160851 -0.000018 0.000010 -0.000021 10.592409 -0.524470 -2.232360 72.638311 -16.297892 12.017678 27.841833 0.000062 -0.000201 106.039800 -70.802533 86.688406 28.328831 -0.000029 0.000023 0.000022 -0.000088 -0.000000 2.465918 -1.576135 2.681901 -47.633732 164.385496 9.838763 3.217805 -1.871722 1.916360 155.741755 -29.833378 7.333473 2.656094 -1.528612 1.514443 143.263177 -27.301463 40.676348 2.020898 -1.154065 1.115151 -0.000002 0.000003 0.000006 9.109366 -0.517858 2.259736 83.744731 -16.399679 14.708819 3.700047 0.000129 -0.000460 80.267482 -17.343618 14.669448 2.850046 0.000158 0.000210 78.136128 -13.951317 11.343027 2.774903 -0.000047 -0.000025 0.000001 -0.000002 -0.000000 9.533442 0.000208 -0.000106 85.815631 -14.580389 13.554446 3.700045 0.000170 -0.000361 87.119917 -15.241926 14.499911 2.950075 0.000157 -0.000179 85.017031 -19.290490 17.711258 2.952866 -0.000047 0.000064 -0.000000 0.000001 -0.000000 9.104579 -0.042844 -1.865215 85.852561 -13.164790 12.253762 3.150064 0.000206 -0.000105 90.938832 -13.654418 13.879704 2.950048 0.000173 -0.000069 90.066651 -15.738846 15.758776 2.644324 0.000015 0.000058 -0.000001 -0.000000 0.000000 8.077847 -0.486716 -3.806409 76.123572 -14.966500 12.202478 3.599991 0.000176 0.014567 77.172620 -12.192992 10.146578 2.100006 0.000174 0.007557 79.311262 -12.001238 10.361090 2.125483 -0.000016 0.007511 -0.000000 0.000002 -0.000001 -8.207786 -6.751667 -1.599560 -0.077001 -0.000003 0.000080 -0.000002 -44.370110 0.345938 0.153719 -0.000000 -0.000000 0.000000 -44.423679 -3.043532 -0.076700 0.000000 -0.000002 -0.000006 -8.728667 10.710559 -0.000009 -0.000000 -0.000000 -0.000001 -0.000679 9.278123 0.000000 -0.000000 -0.000000 8.207792 -6.751710 -1.599556 -0.074518 -0.000003 0.000081 -0.000002 -44.370014 0.346960 0.148822 0.000002 0.000000 -0.000001 -44.423664 -3.044403 -0.074314 0.000000 -0.000002 -0.000004 -8.728671 10.710558 0.000007 -0.000000 -0.000000 0.000000 -0.000680 9.278137 -0.000000 0.000000 -0.000001 
0.000006 104.270477 1.554256 0.000010 0.000003 -0.000113 -0.000005 10.181587 0.131522 0.000001 -0.000003 0.000084 -0.000000 9.893967 -1.470711 0.000001 0.000000 -0.000000 -0.000000 9.220802 -1.370642 0.000000 -0.000000 -0.000000 0.000001 16.740433 -2.049030 0.000000 -0.000000 -0.000000 0.000000 9.617859 1.685014 0.000000 0.000000 0.000000 0.000002 22.037384 7.501101 0.000000 -0.000000 0.000000 -4.569968 11.014880 -2.160881 0.000008 0.000001 -0.000038 -10.592877 -0.524738 -2.231936 73.201255 23.329411 -17.434010 -27.841518 0.000014 0.000539 -51.633218 107.177047 66.521951 -28.328842 0.000021 0.000028 -0.000321 -0.000046 0.000009 -2.464457 -1.573671 2.682268 -54.383961 -175.698092 -31.138334 -3.215284 -1.872614 1.924670 152.268959 30.122558 -4.380979 -2.654959 -1.527887 1.513058 143.267972 27.839725 -34.353437 -2.018827 -1.151995 1.108051 -0.000004 -0.000003 0.000002 -9.108378 -0.517556 2.260106 95.870755 15.567350 -17.277295 -3.700052 0.000323 0.001501 92.899390 12.901129 -13.540375 -2.850089 0.000360 -0.000274 91.729707 10.571091 -10.892264 -2.772181 -0.000013 -0.000021 -0.000001 -0.000000 0.000001 -9.532581 0.000268 0.000230 90.491537 16.037989 -16.317892 -3.700077 0.000325 0.003960 90.402273 12.591086 -12.583244 -2.950068 0.000344 -0.001800 92.684417 11.753734 -12.306040 -2.946614 -0.000011 -0.000156 -0.000003 0.000001 -0.000001 -9.103693 -0.042751 -1.864889 88.233395 17.539349 -16.971113 -3.379338 0.000321 -0.000822 90.549505 11.347529 -11.474028 -2.889751 0.000348 0.000646 97.564854 8.137003 -9.337146 -2.638818 -0.000027 0.000936 0.000004 -0.000001 0.000001 -8.076750 -0.486394 -3.806056 79.041627 18.470959 -15.152334 -3.600078 0.000261 -0.003553 81.149013 10.623840 -8.790704 -2.100026 0.000318 -0.005511 86.811547 6.351179 -5.798205 -2.115762 -0.000055 -0.003682 0.000002 0.000001 -0.000002 4.570446 11.014691 -2.160851 -0.000018 0.000010 -0.000021 10.592397 -0.524484 -2.232357 72.485949 -10.982171 8.061899 27.841837 0.000078 -0.000230 107.280135 -71.867128 89.105036 28.328838 -0.000029 0.000024 0.000019 -0.000089 0.000000 2.466147 -1.576159 2.681892 -19.962633 158.570505 -49.469735 3.217871 -1.871789 1.916383 162.708562 -25.039422 29.150718 2.656114 -1.528677 1.514493 142.106607 -26.767756 53.822178 2.020895 -1.154065 1.115137 -0.000002 0.000003 0.000001 9.109381 -0.517877 2.259735 84.349005 -19.383551 17.578539 3.700032 0.000166 -0.000445 82.053583 -12.158856 10.603780 2.850062 0.000180 0.000188 81.393609 -9.482169 8.158793 2.774879 -0.000045 -0.000026 0.000001 0.000001 0.000000 9.533469 0.000206 -0.000093 85.459539 -17.896030 16.542517 3.700038 0.000206 -0.000383 88.017048 -10.080460 9.736642 2.950043 0.000181 -0.000200 88.899673 -10.779919 10.578861 2.952864 -0.000016 0.000064 -0.000001 0.000001 0.000001 9.104603 -0.042848 -1.865223 86.320026 -17.386030 16.320647 3.150067 0.000220 -0.000103 91.149885 -10.754284 10.972818 2.950029 0.000197 -0.000097 92.356848 -9.774317 10.184561 2.644340 0.000018 0.000054 0.000003 -0.000001 0.000000 8.077856 -0.486725 -3.806423 79.134025 -18.776962 16.059761 3.599999 0.000167 0.014556 80.166511 -15.479965 13.492239 2.100038 0.000186 0.007554 82.038673 -11.913184 10.792451 2.125482 -0.000015 0.007515 0.000000 0.000001 -0.000000 -8.207786 -6.751667 -1.599560 -0.077001 -0.000003 0.000080 -0.000002 -44.370110 0.345938 0.153719 -0.000000 -0.000000 0.000000 -44.423679 -3.043532 -0.076700 0.000000 -0.000002 -0.000006 -8.728667 10.710559 -0.000009 -0.000000 -0.000000 -0.000001 -0.000679 9.278123 0.000000 -0.000000 -0.000000 8.207792 -6.751710 -1.599556 -0.074518 -0.000003 0.000081 -0.000002 -44.370014 0.346960 0.148822 0.000002 0.000000 -0.000001 -44.423664 -3.044403 -0.074314 0.000000 -0.000002 -0.000004 -8.728671 10.710558 0.000007 -0.000000 -0.000000 0.000000 -0.000680 9.278137 -0.000000 0.000000 -0.000001 
0.000006 104.270477 1.554256 0.000010 0.000003 -0.000113 -0.000005 10.181587 0.131522 0.000001 -0.000003 0.000084 -0.000000 9.893967 -1.470711 0.000001 0.000000 -0.000000 -0.000000 9.220802 -1.370642 0.000000 -0.000000 -0.000000 0.000001 16.740433 -2.049030 0.000000 -0.000000 -0.000000 0.000000 9.617859 1.685014 0.000000 0.000000 0.000000 0.000002 22.037384 7.501101 0.000000 -0.000000 0.000000 -4.569968 11.014880 -2.160881 0.000008 0.000001 -0.000038 -10.592868 -0.524778 -2.231885 72.158223 35.223149 -26.047516 -27.841522 -0.000009 0.000582 -46.571129 103.994671 57.691425 -28.328821 0.000009 0.000034 -0.000321 -0.000042 0.000004 -2.464428 -1.573730 2.682305 -51.491208 -169.171095 -20.064239 -3.215290 -1.872633 1.924687 151.712503 28.656042 -14.553299 -2.654964 -1.527885 1.513052 141.362376 28.145179 -34.870066 -2.018823 -1.152001 1.108066 -0.000002 0.000000 0.000004 -9.108366 -0.517552 2.260100 95.499145 14.705804 -16.221318 -3.700057 0.000332 0.001502 93.462417 11.987563 -12.704259 -2.850071 0.000379 -0.000279 92.045521 9.322837 -9.659246 -2.772175 -0.000001 -0.000026 0.000002 -0.000001 -0.000001 -9.532582 0.000282 0.000227 91.778823 13.874897 -14.451593 -3.700078 0.000335 0.003966 92.112887 11.821260 -12.164259 -2.950048 0.000331 -0.001805 92.323858 10.900644 -11.341760 -2.946625 0.000003 -0.000156 -0.000004 0.000001 0.000000 -9.103674 -0.042747 -1.864879 89.786532 15.566418 -15.465406 -3.379333 0.000310 -0.000797 92.980267 12.429186 -13.106359 -2.889784 0.000350 0.000662 96.998214 9.248294 -10.499697 -2.638783 -0.000018 0.000943 -0.000002 -0.000000 -0.000001 -8.076740 -0.486384 -3.806074 79.046872 16.700941 -13.684661 -3.600041 0.000267 -0.003536 82.506677 10.969096 -9.305076 -2.100021 0.000309 -0.005519 87.157913 7.012679 -6.461102 -2.115759 -0.000055 -0.003678 0.000001 -0.000000 -0.000004 4.570446 11.014691 -2.160851 -0.000018 0.000010 -0.000021 10.592421 -0.524478 -2.232378 71.869607 -20.403042 14.862724 27.841837 0.000062 -0.000195 110.175391 -75.197617 95.626972 28.328857 -0.000029 0.000020 0.000022 -0.000088 -0.000001 2.466222 -1.576078 2.681837 7.531003 163.996817 -95.896027 3.217871 -1.871838 1.916412 163.444446 -23.019001 36.695755 2.656115 -1.528619 1.514462 145.864905 -26.014439 48.240496 2.020898 -1.154068 1.115150 0.000002 0.000003 0.000006 9.109366 -0.517857 2.259741 87.774358 -20.687400 19.902669 3.700063 0.000165 -0.000453 86.798577 -14.069196 13.327507 2.850058 0.000185 0.000219 85.785748 -11.398328 10.592922 2.774880 -0.000045 -0.000021 0.000002 0.000000 -0.000000 9.533468 0.000203 -0.000078 88.043754 -19.530405 18.877866 3.700042 0.000205 -0.000381 91.585815 -12.013311 12.345181 2.950044 0.000192 -0.000204 91.472714 -11.097113 11.387171 2.952860 -0.000015 0.000066 -0.000000 -0.000001 -0.000001 9.104578 -0.042850 -1.865203 88.587526 -18.989138 18.536756 3.150054 0.000204 -0.000092 93.041103 -13.035910 13.742170 2.950038 0.000179 -0.000074 93.628322 -10.344850 11.019403 2.644318 0.000030 0.000059 0.000000 0.000001 -0.000000 8.077837 -0.486720 -3.806382 82.190972 -21.044195 18.940903 3.600019 0.000172 0.014583 82.803203 -17.772343 16.169216 2.100050 0.000171 0.007548 84.464510 -12.717207 11.994709 2.125495 -0.000016 0.007520 -0.000002 -0.000001 0.000000 -8.207786 -6.751667 -1.599560 -0.077001 -0.000003 0.000080 -0.000002 -44.370110 0.345938 0.153719 -0.000000 -0.000000 0.000000 -44.423679 -3.043532 -0.076700 0.000000 -0.000002 -0.000006 -8.728667 10.710559 -0.000009 -0.000000 -0.000000 -0.000001 -0.000679 9.278123 0.000000 -0.000000 -0.000000 8.207792 -6.751710 -1.599556 -0.074518 -0.000003 0.000081 -0.000002 -44.370014 0.346960 0.148822 0.000002 0.000000 -0.000001 -44.423664 -3.044403 -0.074314 0.000000 -0.000002 -0.000004 -8.728671 10.710558 0.000007 -0.000000 -0.000000 0.000000 -0.000680 9.278137 -0.000000 0.000000 -0.000001 
